<svg id="visual" viewBox="0 0 960 540" width="960" height="540" xmlns="http://www.w3.org/2000/svg" xmlns:xlink="http://www.w3.org/1999/xlink" version="1.1"><rect x="0" y="0" width="960" height="540" fill="#001220"></rect><path d="M0 365L17.8 362.8C35.7 360.7 71.3 356.3 106.8 347C142.3 337.7 177.7 323.3 213.2 328.5C248.7 333.7 284.3 358.3 320 358.7C355.7 359 391.3 335 426.8 333.2C462.3 331.3 497.7 351.7 533.2 357.5C568.7 363.3 604.3 354.7 640 352.8C675.7 351 711.3 356 746.8 359.3C782.3 362.7 817.7 364.3 853.2 360.5C888.7 356.7 924.3 347.3 942.2 342.7L960 338L960 541L942.2 541C924.3 541 888.7 541 853.2 541C817.7 541 782.3 541 746.8 541C711.3 541 675.7 541 640 541C604.3 541 568.7 541 533.2 541C497.7 541 462.3 541 426.8 541C391.3 541 355.7 541 320 541C284.3 541 248.7 541 213.2 541C177.7 541 142.3 541 106.8 541C71.3 541 35.7 541 17.8 541L0 541Z" fill="#69fafa"></path><path d="M0 358L17.8 365.5C35.7 373 71.3 388 106.8 386.7C142.3 385.3 177.7 367.7 213.2 365.3C248.7 363 284.3 376 320 381.7C355.7 387.3 391.3 385.7 426.8 384.3C462.3 383 497.7 382 533.2 385.7C568.7 389.3 604.3 397.7 640 402.2C675.7 406.7 711.3 407.3 746.8 398C782.3 388.7 817.7 369.3 853.2 369.5C888.7 369.7 924.3 389.3 942.2 399.2L960 409L960 541L942.2 541C924.3 541 888.7 541 853.2 541C817.7 541 782.3 541 746.8 541C711.3 541 675.7 541 640 541C604.3 541 568.7 541 533.2 541C497.7 541 462.3 541 426.8 541C391.3 541 355.7 541 320 541C284.3 541 248.7 541 213.2 541C177.7 541 142.3 541 106.8 541C71.3 541 35.7 541 17.8 541L0 541Z" fill="#00d2ff"></path><path d="M0 421L17.8 422C35.7 423 71.3 425 106.8 425.8C142.3 426.7 177.7 426.3 213.2 420C248.7 413.7 284.3 401.3 320 401.2C355.7 401 391.3 413 426.8 414.7C462.3 416.3 497.7 407.7 533.2 410.3C568.7 413 604.3 427 640 426.2C675.7 425.3 711.3 409.7 746.8 403.5C782.3 397.3 817.7 400.7 853.2 407.7C888.7 414.7 924.3 425.3 942.2 430.7L960 436L960 541L942.2 541C924.3 541 888.7 541 853.2 541C817.7 541 782.3 541 746.8 541C711.3 541 675.7 541 640 541C604.3 541 568.7 541 533.2 541C497.7 541 462.3 541 426.8 541C391.3 541 355.7 541 320 541C284.3 541 248.7 541 213.2 541C177.7 541 142.3 541 106.8 541C71.3 541 35.7 541 17.8 541L0 541Z" fill="#00a2ff"></path><path d="M0 432L17.8 432.7C35.7 433.3 71.3 434.7 106.8 441.2C142.3 447.7 177.7 459.3 213.2 458C248.7 456.7 284.3 442.3 320 436.3C355.7 430.3 391.3 432.7 426.8 433C462.3 433.3 497.7 431.7 533.2 432C568.7 432.3 604.3 434.7 640 434.5C675.7 434.3 711.3 431.7 746.8 435.5C782.3 439.3 817.7 449.7 853.2 453C888.7 456.3 924.3 452.7 942.2 450.8L960 449L960 541L942.2 541C924.3 541 888.7 541 853.2 541C817.7 541 782.3 541 746.8 541C711.3 541 675.7 541 640 541C604.3 541 568.7 541 533.2 541C497.7 541 462.3 541 426.8 541C391.3 541 355.7 541 320 541C284.3 541 248.7 541 213.2 541C177.7 541 142.3 541 106.8 541C71.3 541 35.7 541 17.8 541L0 541Z" fill="#006bed"></path><path d="M0 486L17.8 484.3C35.7 482.7 71.3 479.3 106.8 479.7C142.3 480 177.7 484 213.2 486.7C248.7 489.3 284.3 490.7 320 490.5C355.7 490.3 391.3 488.7 426.8 485C462.3 481.3 497.7 475.7 533.2 477.8C568.7 480 604.3 490 640 494.3C675.7 498.7 711.3 497.3 746.8 493C782.3 488.7 817.7 481.3 853.2 481.5C888.7 481.7 924.3 489.3 942.2 493.2L960 497L960 541L942.2 541C924.3 541 888.7 541 853.2 541C817.7 541 782.3 541 746.8 541C711.3 541 675.7 541 640 541C604.3 541 568.7 541 533.2 541C497.7 541 462.3 541 426.8 541C391.3 541 355.7 541 320 541C284.3 541 248.7 541 213.2 541C177.7 541 142.3 541 106.8 541C71.3 541 35.7 541 17.8 541L0 541Z" fill="#2e24c7"></path></svg>